<?xml version="1.0" encoding="UTF-8"?>
<svg width="8px" height="11px" viewBox="0 0 8 11" version="1.1" xmlns="http://www.w3.org/2000/svg" xmlns:xlink="http://www.w3.org/1999/xlink">
    <title>red_mark</title>
    <g id="Applications" stroke="none" stroke-width="1" fill="none" fill-rule="evenodd">
        <g id="All_bricks_2" transform="translate(-1576.000000, -7404.000000)" fill="#EC1D24">
            <path d="M1581.234,7408.105 L1581.667,7408.973 L1582.759,7411.312 C1582.717,7411.41 1582.661,7411.466 1582.563,7411.508 L1582.563,7411.62 C1582.507,7411.676 1582.283,7411.761 1582.283,7411.845 C1582.283,7411.901 1582.325,7411.985 1582.353,7412.041 C1582.325,7412.209 1582.059,7412.391 1581.891,7412.391 C1581.709,7412.391 1581.429,7411.887 1581.359,7411.775 L1580.044,7409.743 L1577.274,7414.044 C1577.106,7414.17 1576.742,7414.212 1576.546,7414.212 C1576.364,7414.212 1576.336,7414.072 1576.252,7413.932 C1576.168,7413.806 1576.042,7413.652 1576.042,7413.497 C1576.042,7413.413 1576.056,7413.357 1576.084,7413.273 C1576.112,7413.161 1576.168,7413.077 1576.07,7412.993 C1576.042,7412.965 1576,7412.937 1576,7412.895 C1576,7412.713 1576.238,7412.377 1576.336,7412.209 L1576.672,7411.634 C1577.246,7410.626 1578.309,7409.365 1579.065,7408.455 L1579.233,7408.259 L1578.197,7405.401 C1578.155,7405.289 1578.043,7405.051 1578.043,7404.925 C1578.043,7404.827 1578.169,7404.701 1578.225,7404.631 L1578.323,7404.547 C1578.351,7404.519 1578.379,7404.505 1578.421,7404.505 C1578.519,7404.505 1578.575,7404.575 1578.645,7404.631 C1578.729,7404.561 1578.771,7404.561 1578.869,7404.561 C1578.953,7404.519 1578.953,7404.519 1578.995,7404.463 C1579.037,7404.393 1579.065,7404.351 1579.149,7404.351 C1579.303,7404.351 1579.345,7404.491 1579.401,7404.603 L1579.974,7405.751 L1580.464,7406.704 L1580.814,7406.27 L1581.499,7405.485 C1581.653,7405.303 1582.717,7404.014 1582.843,7404.014 C1582.927,7404.014 1583.248,7404.21 1583.332,7404.28 L1583.486,7404.14 C1583.514,7404.098 1583.598,7404 1583.64,7404 C1583.682,7404 1583.71,7404.084 1583.724,7404.112 C1583.78,7404.252 1584,7404.407 1584,7404.505 C1584,7404.589 1583.906,7404.673 1583.85,7404.729 C1583.696,7404.869 1583.5,7405.135 1583.374,7405.303 L1581.387,7407.88 L1581.234,7408.105 Z" id="red_mark"></path>
        </g>
    </g>
</svg>