<?xml version="1.0" encoding="UTF-8"?>
<svg width="54px" height="11px" viewBox="0 0 54 11" version="1.1" xmlns="http://www.w3.org/2000/svg" xmlns:xlink="http://www.w3.org/1999/xlink">
    <title>master_card</title>
    <g id="Applications" stroke="none" stroke-width="1" fill="none" fill-rule="evenodd">
        <g id="master_card" transform="translate(0.159000, 0.547000)">
            <polygon id="Fill-4" fill="#E46E2B" points="5.579 8.443 9.715 8.443 9.715 1.01 5.579 1.01"></polygon>
            <path d="M5.842,4.726 C5.842,3.219 6.548,1.876 7.647,1.01 C6.843,0.377 5.829,2.14939178e-13 4.726,2.14939178e-13 C2.116,2.14939178e-13 -1.39266376e-12,2.116 -1.39266376e-12,4.726 C-1.39266376e-12,7.336 2.116,9.453 4.726,9.453 C5.829,9.453 6.843,9.076 7.647,8.443 C6.548,7.577 5.842,6.234 5.842,4.726" id="Fill-5" fill="#DB3E2C"></path>
            <path d="M15.295,4.726 C15.295,7.336 13.178,9.453 10.568,9.453 C9.465,9.453 8.451,9.076 7.647,8.443 C8.747,7.577 9.452,6.234 9.452,4.726 C9.452,3.219 8.747,1.876 7.647,1.01 C8.451,0.377 9.465,2.14939178e-13 10.568,2.14939178e-13 C13.178,2.14939178e-13 15.295,2.116 15.295,4.726" id="Fill-6" fill="#EC952E"></path>
            <path d="M24.735,4.746 C24.735,4.194 25.096,3.741 25.688,3.741 C26.254,3.741 26.635,4.175 26.635,4.746 C26.635,5.319 26.254,5.753 25.688,5.753 C25.096,5.753 24.735,5.299 24.735,4.746 Z M27.28,4.746 L27.28,3.175 L26.595,3.175 L26.595,3.557 C26.379,3.274 26.05,3.096 25.602,3.096 C24.721,3.096 24.031,3.787 24.031,4.746 C24.031,5.706 24.721,6.398 25.602,6.398 C26.05,6.398 26.379,6.22 26.595,5.937 L26.595,6.319 L27.28,6.319 L27.28,4.746 Z M50.375,4.746 C50.375,4.194 50.737,3.741 51.329,3.741 C51.894,3.741 52.276,4.175 52.276,4.746 C52.276,5.319 51.894,5.753 51.329,5.753 C50.737,5.753 50.375,5.299 50.375,4.746 Z M52.921,4.746 L52.921,1.913 L52.236,1.913 L52.236,3.557 C52.019,3.274 51.69,3.096 51.243,3.096 C50.362,3.096 49.672,3.787 49.672,4.746 C49.672,5.706 50.362,6.398 51.243,6.398 C51.69,6.398 52.019,6.22 52.236,5.937 L52.236,6.319 L52.921,6.319 L52.921,4.746 Z M35.762,3.708 C36.204,3.708 36.486,3.984 36.558,4.471 L34.927,4.471 C35,4.017 35.276,3.708 35.762,3.708 Z M35.776,3.096 C34.855,3.096 34.211,3.767 34.211,4.746 C34.211,5.747 34.882,6.398 35.822,6.398 C36.296,6.398 36.729,6.279 37.111,5.956 L36.776,5.451 C36.512,5.661 36.177,5.78 35.861,5.78 C35.421,5.78 35.02,5.576 34.921,5.01 L37.256,5.01 C37.262,4.924 37.269,4.839 37.269,4.746 C37.262,3.767 36.657,3.096 35.776,3.096 Z M44.029,4.746 C44.029,4.194 44.39,3.741 44.983,3.741 C45.549,3.741 45.929,4.175 45.929,4.746 C45.929,5.319 45.549,5.753 44.983,5.753 C44.39,5.753 44.029,5.299 44.029,4.746 Z M46.574,4.746 L46.574,3.175 L45.89,3.175 L45.89,3.557 C45.674,3.274 45.344,3.096 44.897,3.096 C44.016,3.096 43.326,3.787 43.326,4.746 C43.326,5.706 44.016,6.398 44.897,6.398 C45.344,6.398 45.674,6.22 45.89,5.937 L45.89,6.319 L46.574,6.319 L46.574,4.746 Z M40.169,4.746 C40.169,5.701 40.833,6.398 41.845,6.398 C42.319,6.398 42.634,6.292 42.977,6.023 L42.648,5.47 C42.391,5.655 42.122,5.753 41.826,5.753 C41.28,5.747 40.88,5.352 40.88,4.746 C40.88,4.142 41.28,3.747 41.826,3.741 C42.122,3.741 42.391,3.839 42.648,4.023 L42.977,3.471 C42.634,3.202 42.319,3.096 41.845,3.096 C40.833,3.096 40.169,3.793 40.169,4.746 Z M48.981,3.096 C48.587,3.096 48.33,3.28 48.152,3.557 L48.152,3.175 L47.475,3.175 L47.475,6.319 L48.159,6.319 L48.159,4.556 C48.159,4.037 48.383,3.747 48.83,3.747 C48.967,3.747 49.113,3.767 49.258,3.826 L49.467,3.182 C49.316,3.122 49.119,3.096 48.981,3.096 Z M30.66,3.425 C30.331,3.208 29.877,3.096 29.378,3.096 C28.582,3.096 28.069,3.477 28.069,4.102 C28.069,4.615 28.45,4.931 29.154,5.03 L29.476,5.076 C29.851,5.128 30.028,5.227 30.028,5.405 C30.028,5.648 29.778,5.786 29.311,5.786 C28.839,5.786 28.496,5.634 28.266,5.457 L27.944,5.99 C28.319,6.266 28.792,6.398 29.305,6.398 C30.213,6.398 30.739,5.97 30.739,5.372 C30.739,4.819 30.324,4.53 29.64,4.431 L29.318,4.385 C29.022,4.346 28.786,4.287 28.786,4.076 C28.786,3.846 29.009,3.708 29.384,3.708 C29.785,3.708 30.174,3.859 30.364,3.977 L30.66,3.425 Z M39.478,3.096 C39.084,3.096 38.827,3.28 38.65,3.557 L38.65,3.175 L37.972,3.175 L37.972,6.319 L38.656,6.319 L38.656,4.556 C38.656,4.037 38.88,3.747 39.327,3.747 C39.466,3.747 39.61,3.767 39.755,3.826 L39.966,3.182 C39.814,3.122 39.617,3.096 39.478,3.096 Z M33.645,3.175 L32.527,3.175 L32.527,2.222 L31.837,2.222 L31.837,3.175 L31.199,3.175 L31.199,3.8 L31.837,3.8 L31.837,5.234 C31.837,5.963 32.12,6.398 32.928,6.398 C33.224,6.398 33.566,6.305 33.783,6.154 L33.587,5.569 C33.383,5.687 33.159,5.747 32.981,5.747 C32.639,5.747 32.527,5.536 32.527,5.22 L32.527,3.8 L33.645,3.8 L33.645,3.175 Z M23.426,6.319 L23.426,4.346 C23.426,3.602 22.953,3.103 22.189,3.096 C21.789,3.09 21.374,3.215 21.085,3.655 C20.868,3.307 20.526,3.096 20.046,3.096 C19.71,3.096 19.382,3.195 19.125,3.563 L19.125,3.175 L18.441,3.175 L18.441,6.319 L19.132,6.319 L19.132,4.576 C19.132,4.03 19.434,3.741 19.901,3.741 C20.355,3.741 20.585,4.037 20.585,4.569 L20.585,6.319 L21.275,6.319 L21.275,4.576 C21.275,4.03 21.592,3.741 22.045,3.741 C22.511,3.741 22.735,4.037 22.735,4.569 L22.735,6.319 L23.426,6.319 L23.426,6.319 Z" id="Fill-7" fill="#1A1919"></path>
        </g>
    </g>
</svg>