<?xml version="1.0" encoding="UTF-8"?>
<svg width="27px" height="9px" viewBox="0 0 27 9" version="1.1" xmlns="http://www.w3.org/2000/svg" xmlns:xlink="http://www.w3.org/1999/xlink">
    <title>Visa</title>
    <defs>
        <path d="M13.372,0.335 L11.682,8.233 L9.638,8.233 L11.329,0.335 L13.372,0.335 Z M21.968,5.434 L23.044,2.469 L23.663,5.434 L21.968,5.434 Z M24.248,8.233 L26.138,8.233 L24.488,0.335 L22.744,0.335 C22.352,0.335 22.021,0.563 21.874,0.914 L18.809,8.233 L20.954,8.233 L21.38,7.053 L24.002,7.053 L24.248,8.233 Z M18.915,5.654 C18.924,3.57 16.032,3.455 16.052,2.523 C16.059,2.24 16.328,1.939 16.919,1.862 C17.212,1.824 18.019,1.794 18.933,2.215 L19.293,0.541 C18.8,0.362 18.168,0.19 17.381,0.19 C15.361,0.19 13.94,1.264 13.928,2.801 C13.915,3.939 14.943,4.573 15.717,4.951 C16.513,5.337 16.78,5.585 16.777,5.932 C16.771,6.462 16.142,6.696 15.554,6.705 C14.527,6.721 13.93,6.427 13.456,6.206 L13.086,7.937 C13.563,8.156 14.444,8.347 15.357,8.356 C17.504,8.356 18.908,7.296 18.915,5.654 L18.915,5.654 Z M10.452,0.335 L7.141,8.233 L4.982,8.233 L3.352,1.93 C3.253,1.542 3.168,1.399 2.867,1.236 C2.376,0.969 1.565,0.719 0.851,0.564 L0.899,0.335 L4.377,0.335 C4.819,0.335 5.218,0.629 5.318,1.14 L6.179,5.71 L8.306,0.335 L10.452,0.335 L10.452,0.335 Z" id="path-1"></path>
        <linearGradient x1="0.000395460118%" y1="50.0036738%" x2="100%" y2="50.0036738%" id="linearGradient-3">
            <stop stop-color="#1F1E44" offset="0%"></stop>
            <stop stop-color="#1A4585" offset="100%"></stop>
        </linearGradient>
    </defs>
    <g id="Applications" stroke="none" stroke-width="1" fill="none" fill-rule="evenodd">
        <g id="Visa">
            <mask id="mask-2" fill="white">
                <use xlink:href="#path-1"></use>
            </mask>
            <g id="Clip-2"></g>
            <path d="M13.372,0.335 L11.682,8.233 L9.638,8.233 L11.329,0.335 L13.372,0.335 Z M21.968,5.434 L23.044,2.469 L23.663,5.434 L21.968,5.434 Z M24.248,8.233 L26.138,8.233 L24.488,0.335 L22.744,0.335 C22.352,0.335 22.021,0.563 21.874,0.914 L18.809,8.233 L20.954,8.233 L21.38,7.053 L24.002,7.053 L24.248,8.233 Z M18.915,5.654 C18.924,3.57 16.032,3.455 16.052,2.523 C16.059,2.24 16.328,1.939 16.919,1.862 C17.212,1.824 18.019,1.794 18.933,2.215 L19.293,0.541 C18.8,0.362 18.168,0.19 17.381,0.19 C15.361,0.19 13.94,1.264 13.928,2.801 C13.915,3.939 14.943,4.573 15.717,4.951 C16.513,5.337 16.78,5.585 16.777,5.932 C16.771,6.462 16.142,6.696 15.554,6.705 C14.527,6.721 13.93,6.427 13.456,6.206 L13.086,7.937 C13.563,8.156 14.444,8.347 15.357,8.356 C17.504,8.356 18.908,7.296 18.915,5.654 L18.915,5.654 Z M10.452,0.335 L7.141,8.233 L4.982,8.233 L3.352,1.93 C3.253,1.542 3.168,1.399 2.867,1.236 C2.376,0.969 1.565,0.719 0.851,0.564 L0.899,0.335 L4.377,0.335 C4.819,0.335 5.218,0.629 5.318,1.14 L6.179,5.71 L8.306,0.335 L10.452,0.335 L10.452,0.335 Z" id="Fill-1" fill="url(#linearGradient-3)" mask="url(#mask-2)"></path>
        </g>
    </g>
</svg>