<?xml version="1.0" encoding="UTF-8"?>
<svg width="477px" height="48px" viewBox="0 0 477 48" version="1.1" xmlns="http://www.w3.org/2000/svg" xmlns:xlink="http://www.w3.org/1999/xlink">
    <title>cornèrcard_logo</title>
    <defs>
        <polygon id="path-1" points="0.06 0.967 476.371 0.967 476.371 47.94 0.06 47.94"></polygon>
    </defs>
    <g id="Applications" stroke="none" stroke-width="1" fill="none" fill-rule="evenodd">
        <g id="cornèrcard_logo">
            <g id="Group-12">
                <mask id="mask-2" fill="white">
                    <use xlink:href="#path-1"></use>
                </mask>
                <g id="Clip-2"></g>
                <path d="M49.25,48 L19.083,48 C13.54,48 9.343,47.446 6.491,46.338 C2.137,44.597 0,41.428 0,36.758 L0,22.189 C0,14.665 5.78,10.944 17.34,10.944 L49.725,10.944 C51.783,10.944 52.892,12.053 52.892,14.348 C52.892,16.646 51.783,17.833 49.725,17.833 L17.974,17.833 C11.401,17.833 8.154,19.179 8.154,21.95 L8.154,36.441 C8.154,39.607 11.877,41.113 19.319,41.113 L49.962,41.113 C52.021,41.113 53.05,42.379 53.05,44.912 C53.05,46.971 51.783,48 49.25,48" id="Fill-1" fill="#005C9C" mask="url(#mask-2)"></path>
                <path d="M99.632,22.189 C99.632,19.257 96.226,17.833 89.575,17.833 L76.273,17.833 C73.818,17.833 71.601,18.07 69.622,18.704 C66.85,19.655 65.504,21.002 65.504,22.821 L65.504,36.441 C65.504,38.262 66.929,39.529 69.779,40.322 C71.681,40.874 73.818,41.113 76.352,41.113 L89.575,41.113 C91.792,41.113 93.771,40.874 95.671,40.241 C98.285,39.37 99.632,38.104 99.632,36.441 L99.632,22.189 Z M101.611,45.784 C98.442,47.288 94.483,48 89.813,48 L76.194,48 C71.522,48 67.483,47.209 64.078,45.706 C59.566,43.723 57.27,40.637 57.27,36.441 L57.27,22.821 C57.27,18.704 59.566,15.617 64.078,13.398 C67.563,11.735 71.601,10.944 76.194,10.944 L89.813,10.944 C101.848,10.944 107.867,14.824 107.867,22.742 L107.867,36.441 C107.867,40.637 105.808,43.806 101.611,45.784 L101.611,45.784 Z" id="Fill-3" fill="#005C9C" mask="url(#mask-2)"></path>
                <path d="M134.804,17.833 C134.566,17.833 134.012,17.754 133.22,17.754 C132.429,17.754 131.796,17.754 131.319,17.754 C125.065,17.754 121.897,19.257 121.897,22.426 L121.897,44.912 C121.897,46.497 121.343,47.368 120.236,47.765 C119.761,47.922 118.573,48 116.672,48 C114.614,48 113.583,46.971 113.583,44.912 L113.742,22.426 C113.742,14.746 120.71,10.944 134.804,10.944 C136.784,10.944 137.813,12.211 137.813,14.746 C137.813,16.806 136.784,17.833 134.804,17.833" id="Fill-4" fill="#005C9C" mask="url(#mask-2)"></path>
                <path d="M188.353,48 C186.453,48 185.265,47.922 184.789,47.765 C183.681,47.368 183.128,46.416 183.128,44.912 L183.128,21.317 C183.128,19.655 181.782,18.468 178.93,17.992 C177.979,17.833 175.922,17.833 172.833,17.833 L159.531,17.833 C156.364,17.833 154.226,17.833 153.275,17.992 C150.425,18.544 149,19.655 149,21.395 L149,44.912 C149,46.971 147.971,48 145.913,48 C144.091,48 142.904,47.922 142.429,47.765 C141.32,47.368 140.766,46.416 140.766,44.912 L140.766,21.476 C140.766,14.428 147.02,10.944 159.531,10.944 L172.833,10.944 C185.185,10.944 191.363,14.428 191.363,21.395 L191.363,44.912 C191.363,46.971 190.332,48 188.353,48" id="Fill-5" fill="#005C9C" mask="url(#mask-2)"></path>
                <path d="M240.616,21.792 C240.616,19.02 235.075,17.675 223.989,17.675 C222.643,17.675 221.217,17.675 219.713,17.754 C218.288,17.754 217.655,17.833 217.813,17.833 C209.578,17.833 205.461,19.257 205.461,22.108 L205.461,26.385 L240.616,26.385 L240.616,21.792 Z M246.318,33.433 L205.698,33.433 C205.461,38.577 209.578,41.191 218.208,41.191 C218.763,41.191 219.475,41.191 220.426,41.191 C221.376,41.191 242.894,41.113 243.29,41.113 C245.271,41.113 246.298,42.379 246.298,44.912 C246.298,46.971 245.318,47.75 243.336,47.75 C238.033,47.75 213.537,47.922 211.795,47.683 C207.282,47.288 203.957,46.259 201.818,44.517 C198.809,42.141 197.305,39.451 197.305,36.283 L197.305,22.663 C197.305,18.388 199.681,15.219 204.352,13.161 C207.757,11.657 211.953,10.865 216.863,10.865 L232.065,10.865 C236.182,10.865 239.668,11.579 242.674,13.002 C246.634,14.824 248.533,17.516 248.533,21.16 L248.533,30.106 C248.533,32.323 247.822,33.433 246.318,33.433 L246.318,33.433 Z" id="Fill-6" fill="#005C9C" mask="url(#mask-2)"></path>
                <path d="M275.151,17.833 C274.914,17.833 274.358,17.754 273.567,17.754 C272.776,17.754 272.141,17.754 271.666,17.754 C265.411,17.754 262.245,19.257 262.245,22.426 L262.245,44.912 C262.245,46.497 261.69,47.368 260.582,47.765 C260.106,47.922 258.918,48 257.018,48 C254.959,48 253.929,46.971 253.929,44.912 L254.087,22.426 C254.087,14.746 261.057,10.944 275.151,10.944 C277.128,10.944 278.16,12.211 278.16,14.746 C278.16,16.806 277.128,17.833 275.151,17.833" id="Fill-7" fill="#005C9C" mask="url(#mask-2)"></path>
                <path d="M330.698,48 L300.532,48 C294.989,48 290.792,47.446 287.942,46.338 C283.585,44.597 281.45,41.428 281.45,36.758 L281.45,22.189 C281.45,14.665 287.23,10.944 298.789,10.944 L331.174,10.944 C333.232,10.944 334.34,12.053 334.34,14.348 C334.34,16.646 333.232,17.833 331.174,17.833 L299.423,17.833 C292.85,17.833 289.604,19.179 289.604,21.95 L289.604,36.441 C289.604,39.607 293.326,41.113 300.769,41.113 L331.411,41.113 C333.47,41.113 334.498,42.379 334.498,44.912 C334.498,46.971 333.232,48 330.698,48" id="Fill-8" fill="#005C9C" mask="url(#mask-2)"></path>
                <path d="M354.911,30.4159076 C353.247,30.4159076 351.134,30.394 349.314,31.029 C346.938,31.819 346.121,32.929 346.121,34.453 L346.121,37.154 C346.121,38.499 347.104,39.948 349.561,40.741 C351.381,41.293 353.406,41.113 355.149,41.113 L375.418,41.113 C378.98,41.113 381.435,40.637 382.543,39.687 C383.494,38.895 383.909,37.139 383.909,34.63 C383.909,34.072 383.889,33.977 383.889,33.977 C383.889,32.554 383.889,31.367 383.889,30.4159076 L354.911,30.4159076 Z M343.373,17.833 C341.394,17.833 340.363,16.806 340.363,14.746 L340.363,13.955 C340.363,11.975 341.394,10.944 343.373,10.944 C350.261,10.944 372.642,10.944 375.963,10.944 C386.332,10.944 392.045,16.227 392.045,24.319 L392.045,36.837 C392.045,44.278 386.423,48 375.337,48 L355.385,48 C351.345,48 347.704,47.209 344.299,45.546 C340.103,43.567 337.964,40.796 337.964,37.232 L337.964,34.534 C337.964,30.653 339.945,27.723 343.984,25.823 C347.072,24.319 350.792,23.526 355.068,23.526 L383.889,23.526 C383.889,20.42 383.603,17.807 373.058,17.807 L343.373,17.833 L343.373,17.833 Z" id="Fill-9" fill="#005C9C" mask="url(#mask-2)"></path>
                <path d="M418.418,17.833 C418.179,17.833 417.626,17.754 416.834,17.754 C416.042,17.754 415.409,17.754 414.933,17.754 C408.678,17.754 405.51,19.257 405.51,22.426 L405.51,44.912 C405.51,46.497 404.957,47.368 403.848,47.765 C403.373,47.922 402.186,48 400.286,48 C398.226,48 397.198,46.971 397.198,44.912 L397.355,22.426 C397.355,14.746 404.322,10.944 418.418,10.944 C420.395,10.944 421.425,12.211 421.425,14.746 C421.425,16.806 420.395,17.833 418.418,17.833" id="Fill-10" fill="#005C9C" mask="url(#mask-2)"></path>
                <path d="M468.215,18.07 L443.67,18.07 C436.305,18.07 432.665,19.655 432.665,22.902 L432.665,36.043 C432.665,38.418 434.09,40.005 436.782,40.715 C438.048,41.034 440.344,41.113 443.828,41.113 L455.547,41.113 C463.94,41.113 468.215,39.607 468.215,36.441 L468.215,18.07 Z M468.849,45.625 C465.048,47.209 460.93,48 456.418,48 L443.908,48 C431.16,48 424.666,44.517 424.429,37.549 C424.271,33.592 424.351,28.681 424.509,22.742 C424.826,15.061 431.24,11.262 443.828,11.262 L468.215,11.262 L468.215,3.977 C468.215,1.998 469.165,0.967 471.225,0.967 C473.046,0.967 474.234,1.047 474.708,1.207 C475.818,1.521 476.371,2.471 476.371,3.977 L476.371,36.6 C476.371,40.559 473.838,43.567 468.849,45.625 L468.849,45.625 Z" id="Fill-11" fill="#005C9C" mask="url(#mask-2)"></path>
            </g>
            <path d="M246.745,3.905 C246.745,5.412 245.523,6.634 244.015,6.634 L201.699,6.634 C200.189,6.634 198.969,5.412 198.969,3.905 L198.969,2.855 C198.969,1.347 200.189,0.124 201.699,0.124 L244.015,0.124 C245.523,0.124 246.745,1.347 246.745,2.855 L246.745,3.905" id="Fill-13" fill="#D8232A"></path>
        </g>
    </g>
</svg>