<?xml version="1.0" encoding="utf-8"?>
<!-- Generator: Adobe Illustrator 24.2.1, SVG Export Plug-In . SVG Version: 6.00 Build 0)  -->
<svg version="1.1" id="Livello_1" xmlns="http://www.w3.org/2000/svg" xmlns:xlink="http://www.w3.org/1999/xlink" x="0px" y="0px"
	 viewBox="0 0 339.93 84.46" style="enable-background:new 0 0 339.93 84.46;" xml:space="preserve">
<style type="text/css">
	.st0{fill:#005CA9;}
	.st1{fill:#E30613;}
</style>
<g>
	<g>
		<g>
			<g>
				<g>
					<g>
						<g>
							<g>
								<g>
									<g>
										<path class="st0" d="M65.02,54.15c0,2.49-1.55,3.74-4.64,3.74H23.39c-7.1,0-12.22-0.68-15.34-2.04
											C2.68,53.71,0,49.81,0,44.16v-17.9c0-9.19,7.1-13.78,21.31-13.78H60.9c2.59,0,3.88,1.4,3.88,4.21
											c0,2.81-1.3,4.21-3.88,4.21H22.02c-8.02,0-12.03,1.69-12.03,5.07v17.76c0,3.85,4.56,5.78,13.69,5.78h37.6
											C63.77,49.51,65.02,51.06,65.02,54.15z"/>
										<path class="st0" d="M132.03,43.78c0,5.18-2.56,8.97-7.67,11.37c-3.63,1.83-8.46,2.75-14.49,2.75H93.24
											c-5.49,0-10.47-0.93-14.92-2.79c-5.49-2.46-8.24-6.23-8.24-11.32V27.06c0-5.08,2.73-8.93,8.19-11.55
											c4.01-2.02,8.98-3.03,14.92-3.03h16.67c14.77,0,22.16,4.83,22.16,14.49V43.78z M121.89,43.78V26.3
											c0-3.6-4.1-5.4-12.31-5.4H93.34c-3.03,0-5.75,0.38-8.15,1.14c-3.41,1.11-5.11,2.78-5.11,5.02v16.72
											c0,2.15,1.74,3.73,5.21,4.74c2.3,0.66,5,0.99,8.1,0.99h16.24c2.62,0,5.1-0.38,7.43-1.14
											C120.28,47.33,121.89,45.8,121.89,43.78z"/>
										<path class="st0" d="M166.88,17.21c0,2.49-1.48,3.74-4.45,3.74c-0.41,0-1-0.02-1.78-0.07c-0.77-0.05-1.37-0.07-1.78-0.07
											c-7.67,0-11.51,1.91-11.51,5.73v27.61c0,1.83-0.69,2.98-2.08,3.46c-0.57,0.19-2.02,0.28-4.36,0.28
											c-2.37,0-3.55-1.26-3.55-3.79V26.54c0-5.94,3.05-9.96,9.14-12.08c3.72-1.33,9.27-1.99,16.62-1.99
											C165.63,12.48,166.88,14.06,166.88,17.21z"/>
										<path class="st0" d="M232.04,54.15c0,2.49-1.25,3.74-3.74,3.74c-2.46,0-3.9-0.11-4.31-0.33
											c-1.36-0.47-2.04-1.61-2.04-3.41V25.26c0-2.05-1.7-3.39-5.11-4.03c-0.6-0.13-1.52-0.21-2.77-0.26
											c-1.25-0.05-2.82-0.07-4.71-0.07h-17.24c-1.74,0-3.2,0.03-4.38,0.09c-1.18,0.06-2.12,0.16-2.82,0.28
											c-3.22,0.63-4.83,1.97-4.83,4.03v28.84c0,2.49-1.23,3.74-3.69,3.74c-2.46,0-3.9-0.11-4.31-0.33
											c-1.33-0.47-1.99-1.61-1.99-3.41V25.4c0-8.62,7.64-12.93,22.92-12.93h16.34c15.12,0,22.68,4.28,22.68,12.83V54.15z"/>
										<path class="st0" d="M300.32,35.96c0,2.75-0.93,4.12-2.79,4.12h-49.68v0.33c0,4.29,2.53,7.06,7.58,8.29
											c1.1,0.25,2.71,0.45,4.81,0.59c2.1,0.14,30.29,0.25,33.54,0.25c2.46,0,3.69,1.55,3.69,4.64c0,2.49-1.23,3.74-3.69,3.74
											c-3.35,0-31.6-0.06-33.73-0.11s-3.75-0.13-4.85-0.26c-5.49-0.57-9.53-1.86-12.12-3.88c-3.69-2.87-5.54-6.25-5.54-10.13
											V26.83c0-5.24,2.84-9.12,8.52-11.65c3.88-1.83,9.03-2.75,15.44-2.75h18.66c5.24,0,9.58,0.87,13.02,2.6
											c4.77,2.21,7.15,5.54,7.15,9.99V35.96z M290.57,31.42v-5.59c0-3.41-6.77-5.11-20.32-5.11c-7.99,0-13.47,0.28-16.43,0.85
											c-4.2,0.79-6.3,2.34-6.3,4.64v5.21H290.57z"/>
										<path class="st0" d="M333.9,17.21c0,2.49-1.48,3.74-4.45,3.74c-0.41,0-1-0.02-1.78-0.07c-0.77-0.05-1.37-0.07-1.78-0.07
											c-7.67,0-11.51,1.91-11.51,5.73v27.61c0,1.83-0.69,2.98-2.08,3.46c-0.57,0.19-2.02,0.28-4.36,0.28
											c-2.37,0-3.55-1.26-3.55-3.79V26.54c0-5.94,3.05-9.96,9.14-12.08c3.72-1.33,9.27-1.99,16.62-1.99
											C332.65,12.48,333.9,14.06,333.9,17.21z"/>
										<path class="st1" d="M295.09,9.57h-50.75c-2.64,0-4.79-2.14-4.79-4.79v0c0-2.64,2.14-4.79,4.79-4.79l50.75,0
											c2.64,0,4.79,2.14,4.79,4.79v0C299.87,7.43,297.73,9.57,295.09,9.57z"/>
									</g>
								</g>
							</g>
						</g>
					</g>
				</g>
			</g>
		</g>
		<g>
			<g>
				<g>
					<path class="st1" d="M220.66,70.38c0,1.06-0.36,1.58-1.07,1.58h-19.09v0.13c0,1.65,0.97,2.71,2.91,3.18
						c0.42,0.1,1.04,0.17,1.85,0.23c0.81,0.05,11.64,0.1,12.89,0.1c0.95,0,1.42,0.59,1.42,1.78c0,0.96-0.47,1.44-1.42,1.44
						c-1.29,0-12.14-0.02-12.96-0.04c-0.82-0.02-1.44-0.05-1.87-0.1c-2.11-0.22-3.66-0.72-4.66-1.49c-1.42-1.1-2.13-2.4-2.13-3.89
						v-6.42c0-2.01,1.09-3.51,3.28-4.48c1.49-0.7,3.47-1.06,5.93-1.06h7.17c2.01,0,3.68,0.33,5,1c1.83,0.85,2.75,2.13,2.75,3.84
						V70.38z M216.91,68.64v-2.15c0-1.31-2.6-1.97-7.81-1.97c-3.07,0-5.17,0.11-6.31,0.33c-1.61,0.3-2.42,0.9-2.42,1.78v2H216.91z"
						/>
					<g>
						<path class="st1" d="M245.02,61.32c0.66,0,1.14,0.09,1.46,0.28c0.32,0.18,0.48,0.57,0.48,1.17v10.69c0,3.56-2.9,5.35-8.7,5.35
							h-7.34c-5.8,0-8.7-1.78-8.7-5.35V62.76c0-0.59,0.16-0.98,0.49-1.17c0.33-0.18,0.82-0.28,1.48-0.28c0.66,0,1.14,0.09,1.46,0.28
							c0.32,0.18,0.48,0.57,0.48,1.17v10.69c0,0.64,0.39,1.17,1.17,1.6c0.78,0.43,2.03,0.65,3.75,0.65h7.1
							c1.72,0,2.97-0.21,3.75-0.65c0.78-0.43,1.17-0.96,1.17-1.6V62.76c0-0.59,0.16-0.98,0.49-1.17
							C243.87,61.41,244.36,61.32,245.02,61.32z"/>
					</g>
				</g>
				<g>
					<path class="st1" d="M259.94,61.44c0.47,0,0.77,0.13,0.91,0.4c0.13,0.27,0.2,0.66,0.2,1.17c0,0.51-0.07,0.9-0.2,1.15
						c-0.13,0.26-0.44,0.38-0.91,0.38h-2.4c-1.52,0-2.57,0.19-3.16,0.58c-0.59,0.39-0.89,0.93-0.89,1.63v10.72
						c0,0.59-0.16,0.98-0.49,1.17c-0.33,0.18-0.82,0.28-1.47,0.28c-0.66,0-1.14-0.09-1.46-0.28c-0.32-0.18-0.48-0.57-0.48-1.17
						V66.75c0-1.78,0.68-3.11,2.04-3.99c1.36-0.88,3.33-1.32,5.91-1.32H259.94z"/>
					<path class="st1" d="M262.37,66.78c0-3.56,2.9-5.34,8.69-5.34h6.7c5.8,0,8.69,1.78,8.69,5.34v6.67c0,3.56-2.9,5.34-8.69,5.34
						h-6.7c-5.8,0-8.69-1.78-8.69-5.34V66.78z M282.55,66.78c0-0.63-0.39-1.17-1.17-1.6c-0.78-0.43-2.03-0.65-3.75-0.65h-6.45
						c-1.72,0-2.97,0.22-3.75,0.65c-0.78,0.43-1.17,0.96-1.17,1.6v6.67c0,0.61,0.39,1.14,1.17,1.58c0.78,0.44,2.03,0.66,3.75,0.66
						h6.45c1.72,0,2.97-0.22,3.75-0.66c0.78-0.44,1.17-0.97,1.17-1.58V66.78z"/>
					<path class="st1" d="M292.84,82.51c0,0.59-0.16,0.98-0.49,1.17c-0.33,0.18-0.82,0.28-1.47,0.28s-1.14-0.09-1.46-0.28
						c-0.32-0.18-0.48-0.57-0.48-1.17V66.78c0-3.56,2.9-5.34,8.69-5.34H305c5.79,0,8.69,1.78,8.69,5.34v6.67
						c0,3.56-2.9,5.34-8.69,5.34h-12.16V82.51z M304.88,75.69c1.72,0,2.97-0.21,3.75-0.65c0.78-0.43,1.17-0.96,1.17-1.6v-6.67
						c0-0.61-0.39-1.14-1.17-1.58c-0.78-0.44-2.03-0.66-3.75-0.66h-7.13c-1.72,0-2.97,0.22-3.75,0.66
						c-0.78,0.44-1.17,0.97-1.17,1.58v8.91H304.88z"/>
				</g>
			</g>
		</g>
	</g>
	<path class="st1" d="M340.16,70.38c0,1.06-0.36,1.58-1.07,1.58H320v0.13c0,1.65,0.97,2.71,2.91,3.18c0.42,0.1,1.04,0.17,1.85,0.23
		c0.81,0.05,11.64,0.1,12.89,0.1c0.95,0,1.42,0.59,1.42,1.78c0,0.96-0.47,1.44-1.42,1.44c-1.29,0-12.14-0.02-12.96-0.04
		c-0.82-0.02-1.44-0.05-1.87-0.1c-2.11-0.22-3.66-0.72-4.66-1.49c-1.42-1.1-2.13-2.4-2.13-3.89v-6.42c0-2.01,1.09-3.51,3.28-4.48
		c1.49-0.7,3.47-1.06,5.93-1.06h7.17c2.01,0,3.68,0.33,5,1c1.83,0.85,2.75,2.13,2.75,3.84V70.38z M336.41,68.64v-2.15
		c0-1.31-2.6-1.97-7.81-1.97c-3.07,0-5.17,0.11-6.31,0.33c-1.61,0.3-2.42,0.9-2.42,1.78v2H336.41z"/>
</g>
</svg>
